<svg width="31" height="32" viewBox="0 0 31 32" fill="none" xmlns="http://www.w3.org/2000/svg">
<path d="M26.4653 26.6452C20.419 32.6915 10.581 32.6915 4.5347 26.6452C-1.51157 20.599 -1.51157 10.7609 4.5347 4.71463C10.581 -1.33164 20.419 -1.33164 26.4653 4.71463C32.5116 10.7609 32.5116 20.599 26.4653 26.6452ZM20.5607 12.3064C21.0266 11.8404 21.0266 11.0852 20.5607 10.6193C20.0947 10.1533 19.3395 10.1533 18.8735 10.6193L15.5 13.9928L12.1265 10.6193C11.6605 10.1533 10.9053 10.1533 10.4393 10.6193C9.97336 11.0852 9.97336 11.8404 10.4393 12.3064L13.8129 15.6799L10.4393 19.0535C9.97336 19.5194 9.97336 20.2746 10.4393 20.7406C10.9053 21.2066 11.6605 21.2066 12.1265 20.7406L15.5 17.3671L18.8735 20.7406C19.3395 21.2066 20.0947 21.2066 20.5607 20.7406C21.0266 20.2746 21.0266 19.5194 20.5607 19.0535L17.1871 15.6799L20.5607 12.3064Z" fill="#EC2D31"/>
<path d="M20.5607 12.3064C21.0266 11.8404 21.0266 11.0852 20.5607 10.6193C20.0947 10.1533 19.3395 10.1533 18.8735 10.6193L15.5 13.9928L12.1265 10.6193C11.6605 10.1533 10.9053 10.1533 10.4393 10.6193C9.97336 11.0852 9.97336 11.8404 10.4393 12.3064L13.8129 15.6799L10.4393 19.0535C9.97336 19.5194 9.97336 20.2747 10.4393 20.7406C10.9053 21.2066 11.6605 21.2066 12.1265 20.7406L15.5 17.3671L18.8735 20.7406C19.3395 21.2066 20.0947 21.2066 20.5607 20.7406C21.0266 20.2747 21.0266 19.5194 20.5607 19.0535L17.1871 15.6799L20.5607 12.3064Z" fill="white"/>
</svg>
