<svg width="605" height="116" viewBox="0 0 605 116" fill="none" xmlns="http://www.w3.org/2000/svg">
  <defs>
    <filter id="turbulent-displace">
      <feTurbulence 
        type="turbulence" 
        baseFrequency="0.01" 
        numOctaves="2" 
        result="turbulence"
      >
        <animate  
          attributeName="baseFrequency" 
          from="0.01" 
          to="0.1" 
          dur="3s" 
          repeatCount="indefinite" 
        />
      </feTurbulence>
      <feDisplacementMap 
        in="SourceGraphic" 
        in2="turbulence" 
        scale="10" 
        xChannelSelector="R" 
        yChannelSelector="G" 
      />
    </filter>
  </defs>
 <path d="M0.608 2.92H59.616V16.488C50.4 9.31999 33.248 5.22399 24.928 5.22399H22.112V23.272C22.112 40.424 36.832 42.216 53.344 42.088V55.272C46.176 51.048 38.496 47.08 32.096 43.368C26.848 43.368 22.112 46.824 22.112 77.288V110.696H24.928C33.248 110.696 50.4 106.6 59.616 99.432V113H0.608V112.744C2.528 106.856 3.04 98.792 3.04 86.76V81.512C3.04 56.296 16.736 44.52 27.232 41.576C10.592 36.2 3.04 26.6 3.04 17.512V18.664C3.04 11.368 2.528 6.632 0.608 3.048V2.92ZM139.276 2.92V3.17599C137.356 9.064 136.844 17.128 136.844 29.16V86.76C136.844 98.792 137.356 106.856 139.276 112.744V113H117.9L73.1 14.312V78.44C73.1 86.76 77.196 103.784 84.364 113H68.108V112.744C70.028 106.856 70.54 98.792 70.54 86.76V29.16C70.54 17.128 70.028 9.064 68.108 3.17599V2.92H89.484L134.284 104.04V37.48C134.284 29.16 130.188 12.136 123.02 2.92H139.276ZM208.515 2.92H218.755L188.547 55.144L214.403 113H192.643V112.744C194.563 106.856 189.315 100.072 184.323 89.064L175.363 69.096L168.579 81.128C160.899 94.824 157.955 102.888 157.955 113H147.715L174.467 66.92L145.795 2.92H167.555V3.17599C165.635 9.064 170.883 15.848 175.875 26.856L187.651 53.096L197.891 34.792C205.571 21.096 208.515 13.032 208.515 2.92ZM221.233 2.92H280.241V16.488C271.025 9.31999 253.873 5.22399 245.553 5.22399H242.737V23.272C242.737 40.424 257.457 42.216 273.969 42.088V55.272C266.801 51.048 259.121 47.08 252.721 43.368C247.473 43.368 242.737 46.824 242.737 77.288V110.696H245.553C253.873 110.696 271.025 106.6 280.241 99.432V113H221.233V112.744C223.153 106.856 223.665 98.792 223.665 86.76V81.512C223.665 56.296 237.361 44.52 247.857 41.576C231.217 36.2 223.665 26.6 223.665 17.512V18.664C223.665 11.368 223.153 6.632 221.233 3.048V2.92ZM288.733 113V112.744C290.653 106.856 291.165 98.792 291.165 86.76V29.16C291.165 17.128 290.653 9.064 288.733 3.17599V2.92H338.397C344.541 2.92 353.373 5.48 353.373 14.824C353.373 26.856 335.965 29.8 323.549 40.808V41.064C326.493 39.784 328.925 39.144 332.253 39.144C339.933 39.144 347.741 43.24 349.405 52.84L355.293 87.144C357.341 99.048 360.157 106.856 362.077 112.744V113H340.957L331.613 53.608C330.589 47.464 327.389 44.392 324.189 44.392C318.429 44.392 310.621 53.096 310.237 69.096V86.76C310.237 98.792 310.749 106.856 312.669 112.744V113H288.733ZM310.109 5.22399L310.237 54.76H310.621C318.173 38.12 335.197 31.336 335.197 17.768C335.197 7.39999 329.053 5.22399 323.037 5.22399H310.109ZM441.646 43.496V43.752C439.854 49.64 439.214 57.704 439.214 69.736V86.76C439.214 98.792 439.854 106.856 441.646 112.744V113H420.27V94.184C415.79 108.648 407.726 115.176 398.766 115.176C382.51 115.176 364.59 94.952 364.59 57.96C364.59 14.312 388.526 0.743996 416.174 0.743996C423.982 0.743996 431.662 1.768 438.574 3.048V18.28C426.926 9.19199 416.174 4.2 407.342 4.2C392.366 4.2 383.406 18.92 383.406 50.792C383.406 93.8 394.798 108.904 404.91 108.904C412.462 108.904 420.27 97 420.27 78.44V69.736C420.27 57.704 419.758 49.64 417.838 43.752V43.496H441.646ZM465.024 113H450.56L477.312 21.736L471.68 2.92H492.544L523.52 113H504.064C498.432 87.656 486.528 75.88 477.056 75.88C468.992 75.88 462.72 83.688 462.72 97.256C462.72 101.992 463.36 107.112 465.024 113ZM496.384 87.272H496.896L478.592 26.088L461.056 85.736H461.44C465.664 76.904 471.936 73.576 477.44 73.576C482.816 73.576 490.24 76.776 496.384 87.272ZM530.733 113V112.744C532.653 106.856 533.165 98.792 533.165 86.76V29.16C533.165 17.128 532.653 9.064 530.733 3.17599V2.92H580.397C586.541 2.92 595.373 5.48 595.373 14.824C595.373 26.856 577.965 29.8 565.549 40.808V41.064C568.493 39.784 570.925 39.144 574.253 39.144C581.933 39.144 589.741 43.24 591.405 52.84L597.293 87.144C599.341 99.048 602.157 106.856 604.077 112.744V113H582.957L573.613 53.608C572.589 47.464 569.389 44.392 566.189 44.392C560.429 44.392 552.621 53.096 552.237 69.096V86.76C552.237 98.792 552.749 106.856 554.669 112.744V113H530.733ZM552.109 5.22399L552.237 54.76H552.621C560.173 38.12 577.197 31.336 577.197 17.768C577.197 7.39999 571.053 5.22399 565.037 5.22399H552.109Z" fill="#EC2D31"  filter="url(#turbulent-displace)"/>
</svg>
