<svg width="36" height="39" viewBox="0 0 36 39" fill="none" xmlns="http://www.w3.org/2000/svg">
<g clip-path="url(#clip0_240_379)">
<path d="M3.40021 14.8354L0.829181 17.4214C-0.281365 18.5384 -0.281366 20.3494 0.82918 21.4664L3.40021 24.0523C4.51075 25.1693 6.3113 25.1693 7.42185 24.0523L9.99287 21.4664C11.1034 20.3494 11.1034 18.5384 9.99287 17.4214L7.42185 14.8354C6.3113 13.7184 4.51075 13.7184 3.40021 14.8354Z" fill="white"/>
<path d="M25.75 14.0683H36.0001V16.6818H28.6392V18.143H35.5159V20.7565H28.6392V24.8477H25.75V14.0674V14.0683Z" fill="white"/>
<path d="M12.4978 10.8498H6.79123V5.90511H6.01806V10.8498H0.311523L4.62073 0.0703735H8.20401L12.4978 10.8498Z" fill="white"/>
<path d="M35.0738 0.823522C34.8431 0.566739 34.566 0.374836 34.2434 0.246902C34.0372 0.165572 33.8101 0.109829 33.5648 0.0815003C33.4348 0.0659653 33.2986 0.0586548 33.1568 0.0586548C32.7425 0.0586548 32.3746 0.122622 32.0538 0.250557C31.913 0.3063 31.7804 0.374836 31.6568 0.456166C31.2543 0.721174 30.9491 1.06386 30.7401 1.48239C30.7374 1.48787 30.7346 1.49427 30.731 1.50158C30.7283 1.50615 30.7265 1.51163 30.7237 1.51802C30.6847 1.60392 30.622 1.76933 30.5638 2.02245V2.08094C30.5638 2.33315 30.5211 2.52871 30.4348 2.6667C30.4267 2.68132 30.4176 2.69502 30.4076 2.70965C30.3231 2.82296 30.2086 2.89058 30.0632 2.91069C30.0523 2.91251 30.0414 2.91434 30.0296 2.91526C30.0069 2.918 29.9824 2.91891 29.9588 2.91891C29.926 2.91891 29.8952 2.91708 29.8643 2.91343C29.8152 2.90794 29.7689 2.89698 29.7262 2.88144C29.5935 2.83667 29.48 2.75168 29.3864 2.62466C29.37 2.60273 29.3537 2.57897 29.34 2.55612C29.3264 2.53328 29.3137 2.50952 29.301 2.48576C29.2982 2.48119 29.2955 2.47571 29.2937 2.47114C29.2855 2.4556 29.2792 2.43824 29.2728 2.42088C29.2674 2.40991 29.2628 2.39895 29.2592 2.38707C29.2501 2.36331 29.2419 2.33863 29.2346 2.31396C29.1502 2.05535 29.1065 1.74282 29.0102 1.52351C29.0039 1.50889 28.9966 1.49518 28.9903 1.48056C28.9775 1.45497 28.9639 1.42847 28.9494 1.40288C28.8394 1.1991 28.705 1.0136 28.546 0.847281C28.526 0.826263 28.5051 0.805246 28.4851 0.785142C28.4442 0.74402 28.4015 0.705639 28.357 0.667259C28.2689 0.591412 28.1735 0.520134 28.0726 0.454339C27.9491 0.373009 27.8173 0.304472 27.6756 0.248729C27.5366 0.302645 27.4048 0.367526 27.2813 0.444287C26.8643 0.702898 26.5526 1.04192 26.3437 1.46045C26.2764 1.59661 26.2174 1.73734 26.1674 1.88173C26.1438 1.95026 26.1211 2.0188 26.102 2.08916H25.7813L26.052 0.914904V0.246902H25.486C25.2162 0.354732 24.9772 0.506426 24.7719 0.704725C24.7319 0.743106 24.6938 0.781486 24.6565 0.823522C24.1986 1.33343 23.9688 2.05626 23.9688 2.99293V10.956H26.9687V3.57869C26.9687 3.29997 27.0214 3.08979 27.1259 2.94998C27.2304 2.81108 27.3794 2.74072 27.5738 2.74072C27.6065 2.74072 27.6374 2.74254 27.6683 2.7462C27.6983 2.74254 27.7301 2.74072 27.761 2.74072C27.9554 2.74072 28.1053 2.81108 28.2089 2.94998C28.3134 3.08979 28.3661 3.29997 28.3661 3.57869V10.956H31.3661V3.57869C31.3661 3.29997 31.4179 3.08979 31.5214 2.94998C31.6259 2.81108 31.7749 2.74072 31.9694 2.74072C32.0021 2.74072 32.033 2.74254 32.0638 2.7462C32.0938 2.74254 32.1256 2.74072 32.1583 2.74072C32.3519 2.74072 32.5027 2.81108 32.6062 2.94998C32.7107 3.08979 32.7616 3.29997 32.7616 3.57869V10.956H35.7616V2.99293C35.7616 2.05626 35.5326 1.33435 35.0738 0.823522Z" fill="white"/>
<path d="M35.0738 0.823337C34.8431 0.566554 34.566 0.374652 34.2434 0.246717H33.6783V0.917461L33.9491 2.09172H33.6293C33.6102 2.02318 33.5884 1.95465 33.5648 1.88794C33.5148 1.74264 33.4548 1.60008 33.3867 1.46301C33.1786 1.04357 32.8661 0.705454 32.4491 0.446843C32.3255 0.370082 32.1938 0.305201 32.0548 0.251286C31.9139 0.307029 31.7813 0.375565 31.6577 0.456895C31.2552 0.721903 30.95 1.06459 30.741 1.48311C30.7383 1.4886 30.7356 1.49499 30.7319 1.50231C30.7292 1.50687 30.7274 1.51236 30.7247 1.51875C30.6856 1.60465 30.6229 1.77005 30.5648 2.02318C30.513 2.24707 30.5121 2.52761 30.4357 2.66743C30.4285 2.68296 30.4194 2.69758 30.4085 2.71037C30.314 2.81638 30.2059 2.88857 30.0641 2.91142C30.0532 2.91324 30.0423 2.91507 30.0305 2.91598C30.0078 2.91873 29.9833 2.91964 29.9597 2.91964C29.927 2.91964 29.8961 2.91781 29.8652 2.91416C29.8161 2.90867 29.7698 2.89771 29.7271 2.88217C29.5962 2.83557 29.4854 2.74784 29.3873 2.62539C29.37 2.60437 29.3537 2.58061 29.3409 2.55685C29.3264 2.53492 29.3137 2.51116 29.3019 2.48649C29.2992 2.48192 29.2964 2.47644 29.2946 2.47187C29.2864 2.45633 29.2801 2.43897 29.2737 2.42161C29.2683 2.41064 29.2637 2.39968 29.2601 2.3878C29.251 2.36404 29.2428 2.33936 29.2356 2.31469C29.1511 2.05608 29.1075 1.74355 29.0111 1.52424C29.0048 1.50962 28.9975 1.49591 28.9912 1.48129C28.9784 1.4557 28.9648 1.4292 28.9503 1.40361C28.8385 1.19983 28.7041 1.01433 28.5469 0.84801C28.5269 0.826992 28.506 0.805975 28.486 0.78587C28.4442 0.745662 28.4024 0.706368 28.3579 0.667988C28.2698 0.592141 28.1744 0.520863 28.0735 0.455068C27.95 0.373738 27.8182 0.305201 27.6765 0.249458C27.3558 0.121524 26.9878 0.0575562 26.5735 0.0575562C26.4327 0.0575562 26.2982 0.0648667 26.1674 0.0804016C25.9212 0.107816 25.6941 0.163559 25.486 0.245803C25.2162 0.353634 24.9772 0.505328 24.7719 0.703627C24.7319 0.742007 24.6938 0.780388 24.6565 0.822423C24.1986 1.33233 23.9688 2.05517 23.9688 2.99183V10.9549H26.9687V3.5785C26.9687 3.29979 27.0214 3.08961 27.1259 2.9498C27.2304 2.81089 27.3794 2.74053 27.5738 2.74053C27.6065 2.74053 27.6374 2.74236 27.6683 2.74601C27.6983 2.74236 27.7301 2.74053 27.761 2.74053C27.9554 2.74053 28.1053 2.81089 28.2089 2.9498C28.3134 3.08961 28.3661 3.29979 28.3661 3.5785V10.9558H31.3661V3.5785C31.3661 3.29979 31.4179 3.08961 31.5214 2.9498C31.6259 2.81089 31.7749 2.74053 31.9694 2.74053C32.0021 2.74053 32.033 2.74236 32.0638 2.74601C32.0938 2.74236 32.1256 2.74053 32.1583 2.74053C32.3519 2.74053 32.5027 2.81089 32.6062 2.9498C32.7107 3.08961 32.7616 3.29979 32.7616 3.5785V10.9558H35.7616V2.99275C35.7616 2.05608 35.5326 1.33416 35.0738 0.823337Z" fill="white"/>
<path d="M30.6091 1.84225C30.6091 1.84225 30.5219 2.17763 30.4801 2.34668C30.421 2.59159 30.3138 2.93792 29.914 2.92239C29.239 2.8968 30.0494 3.47251 30.0494 3.47251L30.8989 2.68937L30.6091 1.84225Z" fill="white"/>
<path d="M1.37897 28.7744C1.14729 28.9845 0.973758 29.2377 0.858374 29.5328C0.784782 29.7211 0.734812 29.9285 0.709373 30.1524C0.694836 30.2712 0.688477 30.3955 0.688477 30.5243C0.688477 30.9027 0.746623 31.238 0.862008 31.5314C0.911977 31.6602 0.973758 31.7817 1.04735 31.8941C1.2863 32.2615 1.5952 32.5402 1.97406 32.7312C1.97951 32.7339 1.98496 32.7367 1.99132 32.7394C1.99587 32.7422 2.00041 32.744 2.00677 32.7458C2.0849 32.7815 2.2339 32.8381 2.46195 32.8911H2.51464C2.74269 32.8911 2.91894 32.9295 3.04341 33.009C3.05704 33.0163 3.06976 33.0245 3.08157 33.0346C3.18333 33.1123 3.24511 33.2164 3.26328 33.349C3.2651 33.359 3.26691 33.3691 3.26782 33.3791C3.27055 33.4001 3.27146 33.4221 3.27146 33.444C3.27146 33.4732 3.26964 33.5025 3.26601 33.5299C3.26055 33.5747 3.25056 33.6167 3.23784 33.656C3.19786 33.7775 3.12064 33.8808 3.00616 33.9667C2.98617 33.9822 2.96528 33.9959 2.94438 34.0087C2.92349 34.0215 2.90259 34.0334 2.88078 34.0444C2.87624 34.0471 2.8717 34.0498 2.86716 34.0508C2.85262 34.0581 2.83808 34.0645 2.82173 34.07C2.81174 34.0754 2.80174 34.0791 2.79175 34.0827C2.76994 34.091 2.74814 34.0983 2.72542 34.1056C2.49193 34.1833 2.21028 34.2226 2.01222 34.3103C1.99859 34.3158 1.98587 34.3231 1.97406 34.3286C1.95044 34.3404 1.92682 34.3532 1.9041 34.366C1.71967 34.4666 1.5525 34.589 1.40259 34.7343C1.38351 34.7526 1.36534 34.7718 1.34626 34.79C1.30901 34.8275 1.27448 34.8668 1.23996 34.907C1.17091 34.9874 1.10731 35.0742 1.04735 35.1665C0.973758 35.2789 0.911977 35.3996 0.862008 35.5293C0.91016 35.6563 0.969216 35.777 1.03826 35.8894C1.27176 36.2695 1.57703 36.5546 1.95498 36.7456C2.07763 36.8068 2.20483 36.8608 2.33475 36.9065C2.39653 36.9284 2.45831 36.9485 2.52191 36.9658V37.2592L1.46255 37.0115H0.857465V37.5288C0.954679 37.7755 1.09187 37.993 1.27085 38.1812C1.30538 38.2178 1.3399 38.2525 1.37806 38.2863C1.83869 38.7048 2.49011 38.9141 3.33505 38.9141H10.5207V36.1754H3.86473C3.61307 36.1754 3.42409 36.1279 3.2978 36.0319C3.17243 35.9369 3.10883 35.8007 3.10883 35.6225C3.10883 35.5933 3.11064 35.564 3.11428 35.5366C3.11064 35.5092 3.10883 35.48 3.10883 35.4517C3.10883 35.2744 3.17243 35.1373 3.2978 35.0423C3.42409 34.9472 3.61307 34.8988 3.86473 34.8988H10.5216V32.1601H3.86473C3.61307 32.1601 3.42409 32.1126 3.2978 32.0175C3.17243 31.9225 3.10883 31.7863 3.10883 31.6081C3.10883 31.5789 3.11064 31.5496 3.11428 31.5222C3.11064 31.4948 3.10883 31.4656 3.10883 31.4363C3.10883 31.26 3.17243 31.122 3.2978 31.0269C3.42409 30.9319 3.61307 30.8844 3.86473 30.8844H10.5216V28.1457H3.33596C2.49102 28.1457 1.83869 28.354 1.37897 28.7735V28.7744Z" fill="white"/>
<path d="M1.37897 28.7744C1.14729 28.9845 0.973758 29.2377 0.858374 29.5328V30.0491H1.46346L2.52282 29.8015V30.0939C2.46104 30.1113 2.39926 30.1314 2.33839 30.1524C2.20665 30.1981 2.07854 30.2529 1.95498 30.3151C1.57703 30.5051 1.27176 30.7903 1.03826 31.1713C0.969216 31.2837 0.91016 31.4043 0.862008 31.5314C0.911977 31.6602 0.973758 31.7817 1.04735 31.8941C1.2863 32.2615 1.5952 32.5402 1.97406 32.7312C1.97951 32.7339 1.98496 32.7367 1.99132 32.7394C1.99587 32.7422 2.00041 32.744 2.00677 32.7458C2.0849 32.7815 2.2339 32.8381 2.46195 32.8911C2.66364 32.9386 2.91713 32.9386 3.04341 33.009C3.05795 33.0154 3.07067 33.0245 3.08157 33.0346C3.17697 33.1205 3.24238 33.2201 3.26328 33.349C3.2651 33.359 3.26691 33.3691 3.26782 33.3791C3.27055 33.4001 3.27146 33.4221 3.27146 33.444C3.27146 33.4732 3.26964 33.5025 3.26601 33.5299C3.26055 33.5747 3.25056 33.6167 3.23784 33.656C3.19605 33.7757 3.1161 33.8762 3.00616 33.9667C2.98708 33.9822 2.96619 33.9968 2.94438 34.0087C2.92439 34.0224 2.9035 34.0343 2.88078 34.0444C2.87624 34.0471 2.8717 34.0498 2.86716 34.0508C2.85262 34.0581 2.83808 34.0645 2.82173 34.07C2.81174 34.0754 2.80174 34.0791 2.79175 34.0827C2.76994 34.091 2.74814 34.0983 2.72542 34.1056C2.49193 34.1833 2.21028 34.2226 2.01222 34.3103C1.99859 34.3158 1.98587 34.3231 1.97406 34.3286C1.95044 34.3404 1.92682 34.3532 1.9041 34.366C1.71967 34.4675 1.5525 34.5908 1.40259 34.7343C1.38351 34.7526 1.36534 34.7718 1.34626 34.79C1.30992 34.8275 1.27448 34.8668 1.23996 34.907C1.17091 34.9874 1.10731 35.0742 1.04735 35.1665C0.973758 35.2789 0.911977 35.3996 0.862008 35.5293C0.746623 35.8227 0.688477 36.158 0.688477 36.5364C0.688477 36.6652 0.694836 36.7877 0.709373 36.9065C0.734812 37.1312 0.784782 37.3378 0.858374 37.5288C0.955587 37.7755 1.09278 37.993 1.27176 38.1812C1.30628 38.2178 1.34081 38.2525 1.37897 38.2863C1.8396 38.7048 2.49102 38.9141 3.33596 38.9141H10.5216V36.1754H3.86473C3.61307 36.1754 3.42409 36.1279 3.2978 36.0319C3.17243 35.9369 3.10883 35.8007 3.10883 35.6225C3.10883 35.5933 3.11064 35.564 3.11428 35.5366C3.11064 35.5092 3.10883 35.48 3.10883 35.4517C3.10883 35.2744 3.17243 35.1373 3.2978 35.0423C3.42409 34.9472 3.61307 34.8988 3.86473 34.8988H10.5216V32.1601H3.86473C3.61307 32.1601 3.42409 32.1126 3.2978 32.0175C3.17243 31.9225 3.10883 31.7863 3.10883 31.6081C3.10883 31.5789 3.11064 31.5496 3.11428 31.5222C3.11064 31.4948 3.10883 31.4656 3.10883 31.4363C3.10883 31.26 3.17243 31.122 3.2978 31.0269C3.42409 30.9319 3.61307 30.8844 3.86473 30.8844H10.5216V28.1457H3.33596C2.49102 28.1457 1.83869 28.354 1.37897 28.7735V28.7744Z" fill="white"/>
<path d="M2.29876 32.85C2.29876 32.85 2.6013 32.9304 2.75394 32.9679C2.97562 33.0218 3.28725 33.1205 3.27362 33.4842C3.25 34.101 3.76969 33.3608 3.76969 33.3608L3.06284 32.5859L2.29785 32.85H2.29876Z" fill="white"/>
<path d="M23.7724 38.8995L28.0825 28.1191H31.6658L35.9596 38.8995H32.8605L31.8593 36.3508H27.8236L26.8387 38.8995H23.7715H23.7724ZM28.8248 33.7528H30.8745L29.8251 31.2526L28.8239 33.7528H28.8248Z" fill="white"/>
<path d="M21.5814 2.11184H14.1768V0H21.5814V2.11184ZM19.0456 2.7378V10.9521H16.7125V2.7378H19.0456Z" fill="white"/>
<path d="M17.292 18.9508C20.3728 19.6764 22.2217 20.0236 22.2217 22.0349C22.2217 24.0462 20.5382 24.9071 18.1042 24.9071C15.9855 24.9071 14.4819 24.1659 13.5352 22.9122L14.6472 21.748C15.2187 22.67 16.3153 23.3956 18.4349 23.3956C20.3583 23.3956 21.4858 22.8062 21.4858 21.8384C21.4858 20.6742 19.9376 20.4028 18.1342 19.9341C15.9246 19.3593 13.8359 19.012 13.8359 17.0318C13.8359 15.2781 15.5194 14.0536 17.8335 14.0536C19.7269 14.0536 21.0497 14.8697 21.9364 16.0339L20.8244 17.2127C20.2529 16.2751 19.1563 15.5651 17.4582 15.5651C15.7602 15.5651 14.5882 16.351 14.5882 17.2429C14.5882 18.2855 16.1209 18.6638 17.2938 18.9508H17.292Z" fill="white"/>
<path d="M22.0305 31.662C22.0305 33.7337 20.8067 35.0742 18.638 35.3539C19.3812 36.3042 21.0393 38.3137 22.2158 38.9991H19.4275C19.5511 38.4691 18.7616 36.8799 17.8167 35.416H15.1837C15.2301 36.9275 15.3854 38.3448 16.0205 38.9836H13.542C14.4096 38.1109 14.3942 35.681 14.3942 33.5463C14.3942 31.4116 14.317 28.8886 13.542 28.1091H16.5156C19.9545 28.1091 22.0296 28.9818 22.0296 31.6611L22.0305 31.662ZM15.1837 33.8589H16.7637C19.4902 33.8589 21.41 33.4074 21.41 31.7242C21.41 30.2913 20.0162 29.6681 17.8012 29.6681H15.1837L15.1683 29.6059V33.921L15.1837 33.8589Z" fill="white"/>
</g>
<defs>
<clipPath id="clip0_240_379">
<rect width="36" height="39" fill="white"/>
</clipPath>
</defs>
</svg>
